<svg width="100%" viewBox="222 106 237 321" xmlns="http://www.w3.org/2000/svg">

<polygon fill="#ffd710" points="&#10;  233.5,244.0&#10;  247.6,145.0&#10;  346.6,130.9&#10;  377.7,162.0&#10;  291.4,163.4&#10;  446.6,318.6&#10;  421.2,344.0&#10;  266.0,188.8&#10;  264.6,275.1&#10;" style="fill:rgb(255, 215, 16);stroke:none;color:rgb(255, 255, 255);stroke-width:1px;stroke-linecap:butt;stroke-linejoin:miter;opacity:1;font-family:&quot;Anthropic Sans&quot;, -apple-system, BlinkMacSystemFont, &quot;Segoe UI&quot;, sans-serif;font-size:16px;font-weight:400;text-anchor:start;dominant-baseline:auto"/>

<path fill-rule="evenodd" d="&#10;  M 292.6 118 L 320.6 118&#10;  A 52 52 0 0 1 320.6 222&#10;  A 61 61 0 0 1 320.6 344&#10;  L 292.6 344 Z&#10;  M 320.6 138 A 32 32 0 0 0 320.6 202 Z&#10;  M 320.6 243 A 40 40 0 0 0 320.6 323 Z&#10;" style="fill:rgb(232, 232, 226);stroke:none;color:rgb(255, 255, 255);stroke-width:1px;stroke-linecap:butt;stroke-linejoin:miter;opacity:1;font-family:&quot;Anthropic Sans&quot;, -apple-system, BlinkMacSystemFont, &quot;Segoe UI&quot;, sans-serif;font-size:16px;font-weight:400;text-anchor:start;dominant-baseline:auto"/>

<text x="340" y="415" text-anchor="middle" style="fill:rgb(232, 232, 226);stroke:none;color:rgb(255, 255, 255);stroke-width:1px;stroke-linecap:butt;stroke-linejoin:miter;opacity:1;font-family:Consolas, &quot;Courier New&quot;, monospace;font-size:22px;font-weight:700;text-anchor:middle;dominant-baseline:auto">BRYAN TAN</text>
</svg>
